<svg width="18" height="18" viewBox="0 0 18 18" fill="none" xmlns="http://www.w3.org/2000/svg">
<g opacity="0.5">
<path d="M2.56051 10.3335L1.50001 11.394L5.21176 12.9848L6.80326 16.6973L7.86376 15.6368L7.33351 12.9848L9.81826 10.5L12.5258 16.278L13.53 15.2738L12.6375 7.68152L14.7585 5.55977C14.9018 5.4214 15.0161 5.25588 15.0947 5.07287C15.1733 4.88987 15.2147 4.69304 15.2164 4.49387C15.2181 4.2947 15.1802 4.09718 15.1047 3.91284C15.0293 3.72849 14.9179 3.56101 14.7771 3.42018C14.6363 3.27934 14.4688 3.16796 14.2844 3.09253C14.1001 3.01711 13.9026 2.97916 13.7034 2.98089C13.5042 2.98262 13.3074 3.024 13.1244 3.10262C12.9414 3.18123 12.7759 3.2955 12.6375 3.43877L10.4603 5.61602L2.86801 4.72277L1.91926 5.67227L7.65226 8.42477L5.21251 10.8645L2.56051 10.3335Z" fill="#222428"/>
</g>
</svg>
