<svg width="16" height="16" viewBox="0 0 16 16" fill="none" xmlns="http://www.w3.org/2000/svg">
<g opacity="0.5">
<path d="M5.6 3.59998C5.36 3.59998 5.2 3.83998 5.2 3.99998V5.99998H4.4V3.99998C4.4 3.75998 4.24 3.59998 4 3.59998C3.76 3.59998 3.6 3.83998 3.6 3.99998V5.99998H2.8V3.99998C2.8 3.75998 2.64 3.59998 2.4 3.59998C2.16 3.59998 2 3.83998 2 3.99998V6.63998C2 7.35998 2.56 7.91998 3.2 7.99998V13.6C3.2 14.08 3.52 14.4 4 14.4C4.48 14.4 4.8 14.08 4.8 13.6V7.99998C5.44 7.91998 6 7.35998 6 6.63998V3.99998C6 3.83998 5.84 3.59998 5.6 3.59998ZM7.2 3.99998V8.79998H8V13.6C8 14.08 8.32 14.4 8.8 14.4C9.28 14.4 9.6 14.08 9.6 13.6V1.59998C8.24 1.59998 7.2 2.63998 7.2 3.99998ZM12.8 3.19998C11.68 3.19998 10.8 4.39998 10.8 5.83998C10.72 6.79998 11.2 7.67998 12 8.23998V13.6C12 14.08 12.32 14.4 12.8 14.4C13.28 14.4 13.6 14.08 13.6 13.6V8.23998C14.4 7.67998 14.88 6.79998 14.8 5.83998C14.8 4.39998 13.92 3.19998 12.8 3.19998Z" fill="#222428"/>
</g>
</svg>
