<svg width="16" height="16" viewBox="0 0 16 16" fill="none" xmlns="http://www.w3.org/2000/svg">
<g opacity="0.5" clip-path="url(#clip0)">
<path d="M15.5556 2.66669C15.8011 2.66669 16 2.4678 16 2.22225V1.33336C16 1.0878 15.8011 0.888916 15.5556 0.888916H0.444444C0.198889 0.888916 0 1.0878 0 1.33336V2.22225C0 2.4678 0.198889 2.66669 0.444444 2.66669H0.888333V13.3334H0.444444C0.198889 13.3334 0 13.5322 0 13.7778V14.6667C0 14.9122 0.198889 15.1111 0.444444 15.1111H7.11111V12.8889C7.11111 12.6445 7.31111 12.4445 7.55556 12.4445H8.44444C8.68889 12.4445 8.88889 12.6445 8.88889 12.8889V15.1111H15.5556C15.8011 15.1111 16 14.9122 16 14.6667V13.7778C16 13.5322 15.8011 13.3334 15.5556 13.3334H15.1111V2.66669H15.5556ZM7.11111 3.91114C7.11111 3.73336 7.28889 3.55558 7.46667 3.55558H8.53333C8.71111 3.55558 8.88889 3.73336 8.88889 3.91114V4.9778C8.88889 5.15558 8.71111 5.33336 8.53333 5.33336H7.46667C7.28889 5.33336 7.11111 5.15558 7.11111 4.9778V3.91114ZM7.11111 6.5778C7.11111 6.40003 7.28889 6.22225 7.46667 6.22225H8.53333C8.71111 6.22225 8.88889 6.40003 8.88889 6.5778V7.64447C8.88889 7.82225 8.71111 8.00003 8.53333 8.00003H7.46667C7.28889 8.00003 7.11111 7.82225 7.11111 7.64447V6.5778ZM3.55556 3.91114C3.55556 3.73336 3.73333 3.55558 3.91111 3.55558H4.97778C5.15556 3.55558 5.33333 3.73336 5.33333 3.91114V4.9778C5.33333 5.15558 5.15556 5.33336 4.97778 5.33336H3.91111C3.73333 5.33336 3.55556 5.15558 3.55556 4.9778V3.91114ZM4.97778 8.00003H3.91111C3.73333 8.00003 3.55556 7.82225 3.55556 7.64447V6.5778C3.55556 6.40003 3.73333 6.22225 3.91111 6.22225H4.97778C5.15556 6.22225 5.33333 6.40003 5.33333 6.5778V7.64447C5.33333 7.82225 5.15556 8.00003 4.97778 8.00003ZM5.33333 11.5556C5.33333 10.0828 6.52722 8.88891 8 8.88891C9.47278 8.88891 10.6667 10.0828 10.6667 11.5556H5.33333ZM12.4444 7.64447C12.4444 7.82225 12.2667 8.00003 12.0889 8.00003H11.0222C10.8444 8.00003 10.6667 7.82225 10.6667 7.64447V6.5778C10.6667 6.40003 10.8444 6.22225 11.0222 6.22225H12.0889C12.2667 6.22225 12.4444 6.40003 12.4444 6.5778V7.64447ZM12.4444 4.9778C12.4444 5.15558 12.2667 5.33336 12.0889 5.33336H11.0222C10.8444 5.33336 10.6667 5.15558 10.6667 4.9778V3.91114C10.6667 3.73336 10.8444 3.55558 11.0222 3.55558H12.0889C12.2667 3.55558 12.4444 3.73336 12.4444 3.91114V4.9778Z" fill="black"/>
</g>
<defs>
<clipPath id="clip0">
<rect width="16" height="16" fill="white"/>
</clipPath>
</defs>
</svg>
