<svg width="142" height="24" viewBox="0 0 142 24" fill="none" xmlns="http://www.w3.org/2000/svg">
<path d="M24.1645 11.82V11.77C24.1645 11.695 24.1645 11.62 24.1645 11.545C24.1645 11.47 24.1645 11.49 24.1645 11.46C24.1645 11.43 24.1645 11.33 24.1645 11.265C24.1645 11.2 24.1645 11.055 24.1395 10.95C24.1145 10.845 24.1395 10.81 24.1395 10.74V10.64C24.1395 10.575 24.1395 10.515 24.1395 10.45C24.1395 10.385 24.1395 10.415 24.1395 10.395C24.1395 10.375 24.1395 10.25 24.1045 10.18V10.15L24.0595 9.90498V9.87498C24.0595 9.80998 24.0345 9.74498 24.0245 9.67998C24.0145 9.61498 24.0245 9.67998 24.0245 9.64998C24.0245 9.61998 24.0245 9.60998 24.0245 9.58998C24.0245 9.56998 23.9895 9.43998 23.9745 9.36498C23.9745 9.27998 23.9395 9.19998 23.9195 9.11998L23.8745 8.93998C23.8745 8.90998 23.8745 8.87998 23.8495 8.85498L23.7895 8.64998V8.59498C23.7645 8.51998 23.7445 8.44498 23.7195 8.36998C23.6945 8.29498 23.7195 8.36998 23.7195 8.36998C23.7195 8.36998 23.6595 8.20498 23.6345 8.11998L23.5445 7.87998C23.5145 7.79998 23.4845 7.71498 23.4495 7.63498C23.4145 7.55498 23.3945 7.49998 23.3645 7.42998C23.3567 7.40579 23.3466 7.38236 23.3345 7.35998C23.3095 7.29498 23.2795 7.22498 23.2495 7.15998C23.1745 6.99998 23.0995 6.83998 23.0195 6.65998L22.8995 6.42498L22.7945 6.22998C22.7445 6.14498 22.6945 6.05498 22.6395 5.96998C22.5845 5.88498 22.5645 5.83998 22.5245 5.77498L22.4945 5.72998C22.4545 5.65998 22.4095 5.59498 22.3645 5.52498C22.3655 5.51167 22.3655 5.4983 22.3645 5.48498L22.2445 5.30998L22.1195 5.12998L22.0595 5.04498C21.9845 4.93998 21.9095 4.83498 21.8295 4.73498L21.7745 4.66498C21.6245 4.47498 21.4695 4.28998 21.3095 4.10498L21.2445 4.03498C20.9747 3.73519 20.6893 3.44979 20.3895 3.17998L20.2845 3.08498C20.1395 2.94998 19.9895 2.82498 19.8345 2.69998L19.7295 2.61998C19.6145 2.52998 19.4995 2.43998 19.3795 2.35498L19.2745 2.27998C19.1545 2.18998 19.0295 2.10498 18.9045 2.02498L18.7145 1.89998L18.5245 1.78498L18.4445 1.73498C18.1545 1.56498 17.8595 1.40498 17.5545 1.23498L17.3895 1.15498L17.2845 1.10498L17.1195 1.03498L17.0345 0.994984L16.6945 0.854982L16.5895 0.814983L16.3895 0.739983L16.1845 0.669983L16.0845 0.634983L15.7645 0.534983L15.6195 0.494984L15.3795 0.424982L15.1895 0.379982C14.9695 0.324982 14.7495 0.279983 14.5295 0.239983L14.3545 0.204983H14.3245H14.1445H14.0045L13.7395 0.169983H13.5845H13.3695H13.2645H12.9545H11.7095H11.4045H11.2995H11.0845H10.9245L10.6645 0.204983H10.5195L10.3095 0.234983L10.1345 0.269983C9.91455 0.309983 9.69455 0.354983 9.47955 0.409983L9.28955 0.454983L9.04454 0.524982L8.90454 0.564983L8.57955 0.664984L8.48455 0.699984L8.27455 0.769983L8.07454 0.844982L7.96955 0.884983L7.62954 1.02498L7.54454 1.06498L7.37954 1.13498L7.27954 1.18498L7.11454 1.26498C6.80954 1.41498 6.51454 1.57498 6.22454 1.76498L6.14454 1.81498L5.95455 1.92998L5.76954 2.05498L5.39454 2.30998L5.28955 2.38498C5.17455 2.46998 5.05454 2.55998 4.94454 2.64998L4.83454 2.72998C4.68454 2.85498 4.53455 2.97998 4.38455 3.11498L4.27954 3.20998C3.87202 3.44893 3.47962 3.71277 3.10455 3.99998L3.04454 4.06998C2.87954 4.25498 2.72455 4.43998 2.57955 4.62998L2.51954 4.69998C2.43954 4.79998 2.36455 4.90498 2.28955 5.00998L2.22955 5.09498L2.10455 5.27498C2.06455 5.32998 2.02454 5.38998 1.98954 5.44998L1.95954 5.48998L1.82955 5.69498C1.81936 5.70887 1.81095 5.72399 1.80455 5.73998L1.68454 5.93498L1.53455 6.19498C1.49955 6.25998 1.45955 6.32498 1.42955 6.38998L1.30455 6.62498C1.22455 6.77998 1.14955 6.93998 1.07955 7.12498C1.07955 7.18998 1.02455 7.25998 0.994548 7.32498L0.964541 7.39498L0.879542 7.59998L0.784549 7.84498C0.754549 7.92498 0.724542 8.00498 0.699542 8.08498C0.669542 8.16998 0.639543 8.24998 0.614543 8.33498L0.539546 8.55998V8.61498L0.479548 8.81998C0.479548 8.81998 0.479548 8.87498 0.479548 8.90498C0.479548 8.93498 0.444545 9.02498 0.429545 9.08498L0.369548 9.32998C0.369548 9.40498 0.334545 9.47998 0.319545 9.55498V9.61498C0.319545 9.61498 0.319545 9.61498 0.319545 9.64498C0.319545 9.67498 0.319544 9.77498 0.279544 9.83998V9.86998C0.279544 9.94998 0.279543 10.03 0.239543 10.115C0.237204 10.1248 0.237204 10.1351 0.239543 10.145C0.239543 10.215 0.214544 10.285 0.209544 10.36C0.207189 10.3782 0.207189 10.3967 0.209544 10.415C0.209544 10.48 0.209543 10.54 0.184543 10.605C0.182318 10.6383 0.182318 10.6717 0.184543 10.705C0.184543 10.775 0.184549 10.845 0.159549 10.915C0.134549 10.985 0.159549 11.125 0.159549 11.23C0.159549 11.335 0.159549 11.36 0.159549 11.425C0.161961 11.4533 0.161961 11.4817 0.159549 11.51C0.159549 11.585 0.159549 11.66 0.159549 11.735V11.785C0.159549 11.87 0.159549 11.96 0.159549 12.05C0.159549 12.14 0.159549 12.255 0.159549 12.36V12.515C0.159549 12.58 0.159549 12.645 0.159549 12.715C0.159549 12.785 0.159549 12.815 0.159549 12.865C0.159549 12.915 0.159549 12.94 0.159549 12.98C0.159549 13.02 0.159549 13.045 0.159549 13.08C0.157079 13.1149 0.157079 13.15 0.159549 13.185V13.345C0.159549 13.38 0.159549 13.415 0.159549 13.445V13.585C0.159549 13.64 0.159543 13.69 0.184543 13.74C0.209543 13.79 0.184546 13.905 0.219546 13.985C0.254546 14.065 0.219548 14.09 0.244548 14.14L0.274546 14.295C0.276987 14.3199 0.276987 14.345 0.274546 14.37C0.274546 14.45 0.309542 14.525 0.324542 14.605C0.359542 14.76 0.394543 14.915 0.434543 15.07L0.554545 15.5C0.71203 16.0277 0.905827 16.544 1.13455 17.045C1.14913 17.0826 1.16582 17.1193 1.18454 17.155C1.24454 17.28 1.30455 17.41 1.36955 17.535L1.50955 17.805C1.63621 18.0283 1.76621 18.2483 1.89955 18.465L1.97955 18.595C2.50688 19.4081 3.12779 20.1566 3.82955 20.825L3.94454 20.925L4.00955 20.98L4.19454 21.15C5.0733 21.8963 6.1473 22.3756 7.28969 22.5311C8.43208 22.6867 9.59512 22.512 10.6414 22.0278C11.6877 21.5435 12.5736 20.7699 13.1943 19.7984C13.8151 18.8268 14.1448 17.6979 14.1445 16.545V12.95H12.1445C11.6141 12.95 11.1054 13.1607 10.7303 13.5358C10.3553 13.9108 10.1445 14.4196 10.1445 14.95V16.53C10.1501 17.0626 9.94711 17.5762 9.579 17.9611C9.21089 18.346 8.70684 18.5717 8.17455 18.59C7.70055 18.601 7.23805 18.4433 6.86955 18.145C6.82711 18.1129 6.78701 18.0778 6.74955 18.04L6.71454 18.005C5.89245 17.2529 5.23653 16.3374 4.78881 15.3171C4.34108 14.2968 4.11142 13.1942 4.11454 12.08C4.11461 10.6286 4.50682 9.20419 5.24972 7.95735C5.99262 6.7105 7.0586 5.68754 8.33498 4.99661C9.61136 4.30568 11.0507 3.97245 12.5009 4.03215C13.951 4.09185 15.3581 4.54226 16.5734 5.33576C17.7886 6.12926 18.7669 7.23637 19.4048 8.54006C20.0427 9.84375 20.3166 11.2956 20.1973 12.7421C20.0781 14.1885 19.5702 15.5759 18.7275 16.7576C17.8847 17.9392 16.7383 18.8712 15.4095 19.455C15.0438 19.6075 14.7317 19.8653 14.5127 20.1956C14.2937 20.5258 14.1777 20.9137 14.1795 21.31V24C15.1342 23.8396 16.066 23.5642 16.9545 23.18H17.0045L17.2045 23.09L17.4045 22.995L17.6095 22.895L17.7895 22.8L17.9345 22.725L18.0445 22.665L18.2595 22.545C18.3995 22.465 18.5345 22.38 18.6745 22.29L18.7845 22.22C18.9845 22.085 19.1845 21.945 19.3745 21.8L19.4945 21.715L19.8345 21.44C19.9095 21.38 19.9845 21.32 20.0545 21.255L20.1645 21.16L20.3795 20.965L20.4845 20.865L20.5895 20.765L20.7945 20.56C20.8945 20.455 20.9945 20.35 21.0895 20.24L21.1895 20.135L21.2845 20.025L21.3795 19.915L21.4695 19.805C21.5645 19.695 21.6545 19.58 21.7395 19.465C21.8245 19.35 21.8595 19.31 21.9145 19.23C21.9695 19.15 21.9745 19.155 21.9995 19.115L22.1695 18.875C22.1695 18.835 22.2195 18.795 22.2495 18.755C22.2795 18.715 22.3545 18.59 22.4045 18.51L22.4795 18.385C22.5345 18.3 22.5795 18.215 22.6295 18.135L22.6995 18.01L22.8395 17.75L22.8995 17.64L22.9745 17.49L23.0645 17.305L23.1545 17.11C23.1545 17.06 23.1995 17.01 23.2245 16.955C23.2495 16.9 23.2645 16.865 23.2795 16.82L23.3395 16.685L23.4145 16.49C23.4395 16.43 23.4645 16.365 23.4845 16.305C23.5045 16.245 23.5395 16.16 23.5645 16.085C23.5895 16.01 23.6095 15.955 23.6295 15.885C23.6495 15.815 23.6795 15.745 23.6995 15.675L23.7595 15.465C23.7595 15.405 23.7945 15.35 23.8095 15.295C23.8245 15.24 23.8095 15.235 23.8095 15.205C23.8189 15.1594 23.8305 15.1143 23.8445 15.07C23.8445 14.975 23.8895 14.885 23.9095 14.79C23.9295 14.695 23.9095 14.685 23.9445 14.635C23.9795 14.585 23.9795 14.465 23.9945 14.385C24.0095 14.305 24.0195 14.235 24.0345 14.16L24.0645 13.985C24.0645 13.935 24.0645 13.89 24.0645 13.845C24.0645 13.795 24.0645 13.745 24.0645 13.695C24.0645 13.645 24.0645 13.58 24.0645 13.52C24.0645 13.46 24.0645 13.38 24.0645 13.305V13.09C24.0645 13.09 24.0645 13.09 24.0645 13.06C24.0645 13.03 24.0645 12.94 24.0645 12.88C24.0645 12.82 24.0645 12.815 24.0645 12.785C24.0645 12.755 24.0645 12.675 24.0645 12.62C24.0645 12.565 24.0645 12.465 24.0645 12.39V11.89L24.1645 11.82Z" fill="white"/>
<path d="M11.7798 6.58499C12.0839 6.58499 12.3849 6.64487 12.6658 6.76121C12.9466 6.87755 13.2018 7.04807 13.4168 7.26304C13.6318 7.47801 13.8023 7.73321 13.9186 8.01408C14.035 8.29495 14.0948 8.59598 14.0948 8.89999V11.215H11.7798C11.1659 11.215 10.577 10.9711 10.1429 10.5369C9.70875 10.1028 9.46484 9.51397 9.46484 8.89999C9.46484 8.59598 9.52473 8.29495 9.64107 8.01408C9.75741 7.73321 9.92793 7.47801 10.1429 7.26304C10.3579 7.04807 10.6131 6.87755 10.8939 6.76121C11.1748 6.64487 11.4758 6.58499 11.7798 6.58499Z" fill="white"/>
<path d="M36.0798 12.245L34.5448 12.035C34.132 12.0086 33.7366 11.8588 33.4098 11.605C33.3048 11.4921 33.224 11.3588 33.1724 11.2135C33.1209 11.0682 33.0995 10.9139 33.1098 10.76C33.106 10.5976 33.1418 10.4367 33.2141 10.2912C33.2864 10.1457 33.393 10.02 33.5248 9.92499C33.953 9.68238 34.4444 9.57436 34.9348 9.61499C35.5154 9.61659 36.0887 9.74455 36.6148 9.98999C37.1719 10.2419 37.6797 10.5906 38.1148 11.02L40.3298 8.74999C39.9798 8.42499 39.6298 8.12499 39.2748 7.85499C38.9111 7.58318 38.5167 7.35496 38.0998 7.17499C37.6304 6.98188 37.1406 6.84266 36.6398 6.75999C36.0151 6.65783 35.3828 6.60932 34.7498 6.61499C34.0039 6.6054 33.2612 6.71512 32.5498 6.93999C31.9404 7.13677 31.3737 7.44725 30.8798 7.85499C30.4248 8.23829 30.0609 8.71828 29.8148 9.25999C29.5564 9.82975 29.4267 10.4494 29.4348 11.075C29.4348 13.505 30.9732 14.9117 34.0498 15.295L35.5498 15.48C36.4698 15.6 36.9298 15.98 36.9298 16.625C36.9363 16.8073 36.8994 16.9885 36.822 17.1537C36.7446 17.3189 36.629 17.4633 36.4848 17.575C36.0072 17.8576 35.4524 17.9819 34.8998 17.93C34.2048 17.9388 33.5182 17.7775 32.8998 17.46C32.2907 17.1313 31.744 16.698 31.2849 16.18L28.9648 18.5C29.6772 19.3173 30.5657 19.9624 31.5634 20.3867C32.5611 20.8111 33.642 21.0037 34.7248 20.95C35.5408 20.9596 36.3534 20.845 37.1348 20.61C37.8061 20.4133 38.4339 20.0909 38.9848 19.66C39.4824 19.2711 39.8886 18.7778 40.1748 18.215C40.4529 17.6471 40.595 17.0223 40.5898 16.39C40.5898 14.03 39.0865 12.6483 36.0798 12.245Z" fill="white"/>
<path d="M54.3551 14.75V13.6C54.3577 12.7063 54.2382 11.8164 54.0001 10.955C53.7836 10.1427 53.4024 9.38368 52.8801 8.725C52.3427 8.06392 51.6577 7.53816 50.8801 7.19C49.9746 6.78739 48.9908 6.59099 48.0001 6.615C47.0624 6.59521 46.1304 6.76529 45.2601 7.115C44.4926 7.43898 43.8087 7.93308 43.2601 8.56C42.6863 9.21858 42.2571 9.99019 42.0001 10.825C41.4336 12.7526 41.4336 14.8024 42.0001 16.73C42.262 17.5706 42.702 18.3448 43.2901 19C43.8658 19.624 44.5728 20.1124 45.3601 20.43C46.248 20.7792 47.1962 20.9492 48.1501 20.93C49.2951 20.949 50.4329 20.7452 51.5001 20.33C52.4188 19.9726 53.2371 19.3978 53.8851 18.655L51.9551 16.25C51.5357 16.6895 51.0638 17.0757 50.5501 17.4C49.9595 17.7499 49.2811 17.9234 48.5951 17.9C48.1785 17.9374 47.7587 17.8863 47.3632 17.7501C46.9677 17.614 46.6055 17.3959 46.3001 17.11C45.7895 16.5217 45.5277 15.7579 45.5701 14.98V14.75H54.3551ZM45.5701 12.25C45.5352 11.5101 45.7717 10.7829 46.2351 10.205C46.4639 9.94619 46.7482 9.74249 47.0669 9.60915C47.3855 9.4758 47.7302 9.41627 48.0751 9.435C48.4046 9.41044 48.7351 9.46792 49.037 9.60228C49.3389 9.73665 49.6028 9.94373 49.8051 10.205C50.1993 10.7954 50.3954 11.4958 50.3651 12.205V12.5H45.5701V12.25Z" fill="white"/>
<path d="M80.3702 8.39498V17.09C80.3713 18.1751 79.9802 19.224 79.2691 20.0435C78.5579 20.8631 77.5746 21.3981 76.5002 21.55C76.2853 21.5843 76.0679 21.601 75.8502 21.6C75.6309 21.6009 75.4119 21.5842 75.1952 21.55C74.1236 21.3948 73.1438 20.8584 72.4357 20.0391C71.7276 19.2199 71.3387 18.1728 71.3402 17.09V12.35C71.3402 10.6133 70.7152 9.74498 69.4652 9.74498C68.9039 9.74234 68.3561 9.91735 67.9002 10.245C67.6659 10.4154 67.4784 10.6422 67.3551 10.9045C67.2319 11.1667 67.1769 11.4558 67.1952 11.745V20.61H63.3502V12.35C63.3502 10.615 62.7202 9.74498 61.4702 9.74498C61.1928 9.74319 60.9165 9.78194 60.6502 9.85998C60.384 9.93677 60.1358 10.066 59.9202 10.24C59.7121 10.4154 59.5419 10.6315 59.4202 10.875C59.2862 11.1469 59.2193 11.4469 59.2252 11.75V20.61H55.3652V9.10998C55.3652 8.53181 55.5949 7.97732 56.0037 7.56849C56.4126 7.15966 56.9671 6.92998 57.5452 6.92998H59.2252V9.24998H59.3802C59.6204 8.52663 60.0524 7.88204 60.6302 7.38498C61.3163 6.83878 62.1797 6.56464 63.0552 6.61498C63.9097 6.59016 64.75 6.837 65.4552 7.31998C66.1446 7.83155 66.647 8.55526 66.8852 9.37998H66.9652C67.2261 8.5755 67.7557 7.88521 68.4652 7.42498C68.8442 7.17369 69.2566 6.97677 69.6902 6.83998C70.1616 6.6869 70.6546 6.61093 71.1502 6.61498C71.7249 6.5866 72.298 6.69774 72.8204 6.93892C73.3428 7.18011 73.7991 7.54416 74.1502 7.99998C74.8624 9.06703 75.229 10.3274 75.2002 11.61C75.2002 11.745 75.2002 11.88 75.2002 12.015V17.09C75.2008 17.1784 75.2192 17.2657 75.2542 17.3469C75.2892 17.4281 75.3402 17.5014 75.4041 17.5625C75.468 17.6236 75.5435 17.6712 75.6261 17.7026C75.7088 17.7339 75.7969 17.7483 75.8852 17.745C76.0558 17.7286 76.214 17.6485 76.328 17.5205C76.442 17.3926 76.5035 17.2263 76.5002 17.055V10.555C76.5002 9.97681 76.7299 9.42232 77.1387 9.01349C77.5476 8.60466 78.102 8.37498 78.6802 8.37498L80.3702 8.39498Z" fill="white"/>
<path d="M90.6153 15.815C90.4368 16.3526 90.1472 16.8466 89.7653 17.265C89.5405 17.4816 89.2722 17.6479 88.9783 17.7531C88.6844 17.8583 88.3715 17.8998 88.0603 17.875C87.7249 17.8977 87.389 17.8402 87.0803 17.7071C86.7716 17.5741 86.4991 17.3694 86.2853 17.11C85.8593 16.5087 85.6495 15.7808 85.6903 15.045V12.5C85.6495 11.7642 85.8593 11.0363 86.2853 10.435C86.4991 10.1756 86.7716 9.97091 87.0803 9.83787C87.389 9.70483 87.7249 9.64728 88.0603 9.66999C88.6413 9.6357 89.2125 9.83148 89.6503 10.215C90.0279 10.5739 90.2906 11.0368 90.4053 11.545L93.5353 10.19C93.1739 9.11834 92.4714 8.19457 91.5353 7.55999C90.4907 6.89962 89.2702 6.57185 88.0353 6.61999C87.0996 6.60465 86.1701 6.77458 85.3003 7.11999C84.5297 7.43374 83.8443 7.92549 83.3003 8.55499C82.7432 9.21577 82.3264 9.983 82.0753 10.81C81.7851 11.7676 81.6451 12.7645 81.6603 13.765C81.6459 14.772 81.7858 15.7753 82.0753 16.74C82.327 17.5714 82.7493 18.3411 83.3153 19C83.8637 19.6234 84.548 20.1127 85.3153 20.43C86.1837 20.7802 87.1142 20.9504 88.0503 20.93C89.2665 20.9644 90.4661 20.641 91.5003 20C92.5065 19.3047 93.2455 18.287 93.5953 17.115L90.6153 15.815Z" fill="white"/>
<path d="M107 10.785C106.732 9.95675 106.302 9.19015 105.735 8.53C105.184 7.91124 104.501 7.42568 103.735 7.11C101.997 6.45023 100.078 6.45023 98.3399 7.11C97.5739 7.42506 96.8899 7.91071 96.3399 8.53C95.769 9.18761 95.3385 9.95498 95.0749 10.785C94.4815 12.7222 94.4815 14.7927 95.0749 16.73C95.3305 17.5617 95.7505 18.3336 96.3099 19C96.8565 19.6267 97.5411 20.118 98.3099 20.435C100.048 21.0948 101.967 21.0948 103.705 20.435C104.473 20.1175 105.158 19.6263 105.705 19C106.283 18.3365 106.723 17.5649 107 16.73C107.587 14.7918 107.587 12.7232 107 10.785ZM103.425 15.165C103.472 15.8853 103.251 16.5977 102.805 17.165C102.325 17.6182 101.69 17.8707 101.03 17.8707C100.37 17.8707 99.7348 17.6182 99.2549 17.165C98.8067 16.5984 98.5841 15.886 98.6299 15.165V12.375C98.5841 11.654 98.8067 10.9416 99.2549 10.375C99.7348 9.92176 100.37 9.66925 101.03 9.66925C101.69 9.66925 102.325 9.92176 102.805 10.375C103.251 10.9423 103.472 11.6547 103.425 12.375V15.165Z" fill="white"/>
<path d="M112.669 16.605V2.39999H108.814V16.86C108.746 17.8752 109.078 18.8768 109.739 19.65C110.353 20.29 111.321 20.61 112.644 20.61H115.314V17.61H113.684C113.551 17.612 113.419 17.5874 113.296 17.5378C113.173 17.4881 113.06 17.4143 112.966 17.3207C112.871 17.2271 112.796 17.1156 112.746 16.9927C112.695 16.8698 112.669 16.738 112.669 16.605Z" fill="white"/>
<path d="M128.285 10.785C128.021 9.95617 127.592 9.18917 127.025 8.53C126.474 7.91215 125.79 7.42675 125.025 7.11C123.287 6.45023 121.368 6.45023 119.63 7.11C118.864 7.42506 118.18 7.91071 117.63 8.53C117.059 9.18761 116.628 9.95498 116.365 10.785C115.778 12.7232 115.778 14.7918 116.365 16.73C116.625 17.5629 117.05 18.3349 117.615 19C118.161 19.6267 118.846 20.118 119.615 20.435C121.353 21.0948 123.272 21.0948 125.01 20.435C125.778 20.1161 126.462 19.6251 127.01 19C127.576 18.3365 128.005 17.5664 128.27 16.735C128.863 14.7977 128.863 12.7273 128.27 10.79L128.285 10.785ZM124.715 15.165C124.763 15.8862 124.54 16.5993 124.09 17.165C123.611 17.6179 122.977 17.8703 122.317 17.8703C121.658 17.8703 121.024 17.6179 120.545 17.165C120.097 16.5984 119.874 15.886 119.92 15.165V12.375C119.874 11.654 120.097 10.9416 120.545 10.375C121.024 9.92209 121.658 9.66974 122.317 9.66974C122.977 9.66974 123.611 9.92209 124.09 10.375C124.54 10.9407 124.763 11.6538 124.715 12.375V15.165Z" fill="white"/>
<path d="M140.735 7.99998C140.354 7.52657 139.865 7.15176 139.309 6.90722C138.753 6.66267 138.146 6.55558 137.54 6.59497C136.623 6.54191 135.719 6.82849 135 7.39998C134.412 7.88808 133.97 8.52792 133.72 9.24998H133.565V6.92998H131.89C131.312 6.92998 130.757 7.15965 130.348 7.56848C129.94 7.97731 129.71 8.5318 129.71 9.10998V20.61H133.565V11.75C133.559 11.4452 133.631 11.1439 133.775 10.875C133.914 10.6258 134.105 10.4093 134.335 10.24C134.574 10.0641 134.843 9.93516 135.13 9.85998C135.427 9.78149 135.733 9.74281 136.04 9.74498C136.324 9.71001 136.613 9.75079 136.876 9.86318C137.139 9.97557 137.368 10.1556 137.54 10.385C137.863 10.9872 138.008 11.6685 137.96 12.35V20.61H141.815V12.035C141.815 10.3016 141.455 8.95664 140.735 7.99998Z" fill="white"/>
<path d="M80.37 6.76499H78.185C77.8981 6.76499 77.6139 6.70848 77.3488 6.59867C77.0837 6.48886 76.8429 6.32792 76.64 6.12502C76.4371 5.92213 76.2761 5.68125 76.1663 5.41616C76.0565 5.15106 76 4.86693 76 4.57999C76 4.00182 76.2297 3.44733 76.6385 3.0385C77.0473 2.62967 77.6018 2.39999 78.18 2.39999C78.7586 2.39999 79.3136 2.62951 79.7233 3.0382C80.1329 3.44688 80.3637 4.00136 80.365 4.57999L80.37 6.76499Z" fill="white"/>
</svg>
