<svg width="113" height="38" viewBox="0 0 113 38" fill="none" xmlns="http://www.w3.org/2000/svg">
<path d="M49.8281 24.0312C49.8281 23.1458 49.5156 22.4688 48.8906 22C48.2656 21.5208 47.1406 21.0208 45.5156 20.5C43.8906 19.9688 42.6042 19.4479 41.6562 18.9375C39.0729 17.5417 37.7812 15.6615 37.7812 13.2969C37.7812 12.0677 38.125 10.974 38.8125 10.0156C39.5104 9.04688 40.5052 8.29167 41.7969 7.75C43.099 7.20833 44.5573 6.9375 46.1719 6.9375C47.7969 6.9375 49.2448 7.23438 50.5156 7.82812C51.7865 8.41146 52.7708 9.23958 53.4688 10.3125C54.1771 11.3854 54.5312 12.6042 54.5312 13.9688H49.8438C49.8438 12.9271 49.5156 12.1198 48.8594 11.5469C48.2031 10.9635 47.2812 10.6719 46.0938 10.6719C44.9479 10.6719 44.0573 10.9167 43.4219 11.4062C42.7865 11.8854 42.4688 12.5208 42.4688 13.3125C42.4688 14.0521 42.8385 14.6719 43.5781 15.1719C44.3281 15.6719 45.4271 16.1406 46.875 16.5781C49.5417 17.3802 51.4844 18.375 52.7031 19.5625C53.9219 20.75 54.5312 22.2292 54.5312 24C54.5312 25.9688 53.7865 27.5156 52.2969 28.6406C50.8073 29.7552 48.8021 30.3125 46.2812 30.3125C44.5312 30.3125 42.9375 29.9948 41.5 29.3594C40.0625 28.7135 38.9635 27.8333 38.2031 26.7188C37.4531 25.6042 37.0781 24.3125 37.0781 22.8438H41.7812C41.7812 25.3542 43.2812 26.6094 46.2812 26.6094C47.3958 26.6094 48.2656 26.3854 48.8906 25.9375C49.5156 25.4792 49.8281 24.8438 49.8281 24.0312ZM67.2188 30C67.0104 29.5938 66.8594 29.0885 66.7656 28.4844C65.6719 29.7031 64.25 30.3125 62.5 30.3125C60.8438 30.3125 59.4688 29.8333 58.375 28.875C57.2917 27.9167 56.75 26.7083 56.75 25.25C56.75 23.4583 57.4115 22.0833 58.7344 21.125C60.0677 20.1667 61.9896 19.6823 64.5 19.6719H66.5781V18.7031C66.5781 17.9219 66.375 17.2969 65.9688 16.8281C65.5729 16.3594 64.9427 16.125 64.0781 16.125C63.3177 16.125 62.7188 16.3073 62.2812 16.6719C61.8542 17.0365 61.6406 17.5365 61.6406 18.1719H57.125C57.125 17.1927 57.4271 16.2865 58.0312 15.4531C58.6354 14.6198 59.4896 13.9688 60.5938 13.5C61.6979 13.0208 62.9375 12.7812 64.3125 12.7812C66.3958 12.7812 68.0469 13.3073 69.2656 14.3594C70.4948 15.401 71.1094 16.8698 71.1094 18.7656V26.0938C71.1198 27.6979 71.3438 28.9115 71.7812 29.7344V30H67.2188ZM63.4844 26.8594C64.151 26.8594 64.7656 26.7135 65.3281 26.4219C65.8906 26.1198 66.3073 25.7188 66.5781 25.2188V22.3125H64.8906C62.6302 22.3125 61.4271 23.0938 61.2812 24.6562L61.2656 24.9219C61.2656 25.4844 61.4635 25.9479 61.8594 26.3125C62.2552 26.6771 62.7969 26.8594 63.4844 26.8594ZM75.6719 30V16.4062H73.1562V13.0938H75.6719V12.3125C75.6927 10.1875 76.3438 8.55208 77.625 7.40625C78.9167 6.25 80.7344 5.67188 83.0781 5.67188C84.4844 5.67188 86.1927 5.97917 88.2031 6.59375L87.5469 10.3281C86.526 10.026 85.7344 9.83333 85.1719 9.75C84.6094 9.65625 84.0052 9.60938 83.3594 9.60938C81.2552 9.60938 80.2031 10.5417 80.2031 12.4062V13.0938H83.5312V16.4062H80.2031V30H75.6719ZM90.3125 30H85.7812V13.0938H90.3125V30ZM103.547 17.3281C102.932 17.2448 102.391 17.2031 101.922 17.2031C100.214 17.2031 99.0938 17.7812 98.5625 18.9375V30H94.0469V13.0938H98.3125L98.4375 15.1094C99.3438 13.5573 100.599 12.7812 102.203 12.7812C102.703 12.7812 103.172 12.849 103.609 12.9844L103.547 17.3281ZM110.5 30H105.969V13.0938H110.5V30ZM105.703 8.71875C105.703 8.04167 105.927 7.48438 106.375 7.04688C106.833 6.60938 107.453 6.39062 108.234 6.39062C109.005 6.39062 109.62 6.60938 110.078 7.04688C110.536 7.48438 110.766 8.04167 110.766 8.71875C110.766 9.40625 110.531 9.96875 110.062 10.4062C109.604 10.8438 108.995 11.0625 108.234 11.0625C107.474 11.0625 106.859 10.8438 106.391 10.4062C105.932 9.96875 105.703 9.40625 105.703 8.71875Z" fill="#0692C4"/>
<path d="M4.55199 21.3707L2.66666 23.256L9.26532 26.084L12.0947 32.684L13.98 30.7987L13.0373 26.084L17.4547 21.6667L22.268 31.9387L24.0533 30.1533L22.4667 16.656L26.2373 12.884C26.492 12.638 26.6952 12.3437 26.8349 12.0184C26.9747 11.6931 27.0483 11.3431 27.0513 10.9891C27.0544 10.635 26.9869 10.2838 26.8528 9.95612C26.7188 9.62839 26.5208 9.33065 26.2704 9.08027C26.02 8.82989 25.7223 8.63189 25.3945 8.4978C25.0668 8.36372 24.7157 8.29625 24.3616 8.29933C24.0075 8.3024 23.6576 8.37597 23.3322 8.51572C23.0069 8.65548 22.7126 8.85863 22.4667 9.11333L18.596 12.984L5.09866 11.396L3.41199 13.084L13.604 17.9773L9.26666 22.3147L4.55199 21.3707Z" fill="#0692C4"/>
</svg>
